<?xml version="1.0" encoding="UTF-8" ?><!DOCTYPE svg PUBLIC "-//W3C//DTD SVG 1.1//EN" "http://www.w3.org/Graphics/SVG/1.1/DTD/svg11.dtd"><svg width="40px" height="40px" viewBox="0 0 50 49" version="1.1" xmlns="http://www.w3.org/2000/svg"><g id="#295597ff"></g><g id="#000000ff"><path fill="#FFFFFF" opacity="1.00" d=" M 19.52 0.00 L 30.51 0.00 C 39.97 3.06 47.60 10.70 50.00 20.44 L 50.00 28.55 C 47.55 38.29 39.95 45.93 30.47 49.00 L 19.51 49.00 C 10.25 46.03 3.09 38.65 0.00 29.48 L 0.00 19.51 C 3.08 10.33 10.25 2.95 19.52 0.00 M 14.70 37.50 C 17.09 38.55 19.62 39.23 22.19 39.65 C 24.61 38.03 26.81 36.11 28.69 33.89 C 28.52 35.50 28.36 37.10 28.21 38.71 C 30.55 38.68 32.90 38.66 35.25 38.64 C 34.52 29.82 37.75 21.39 37.71 12.63 C 22.95 7.03 6.37 23.27 14.70 37.50 Z"/><path fill="#FFFFFF" opacity="1.00" d=" M 21.61 33.97 C 17.89 27.65 22.14 15.95 30.54 18.18 C 29.02 24.12 29.20 32.56 21.61 33.97 Z"/></g><g id="#ffffffff"></g></svg>