<?xml version="1.0" encoding="UTF-8" ?><!DOCTYPE svg PUBLIC "-//W3C//DTD SVG 1.1//EN" "http://www.w3.org/Graphics/SVG/1.1/DTD/svg11.dtd"><svg width="40px" height="40px" viewBox="0 0 50 49" version="1.1" xmlns="http://www.w3.org/2000/svg"><g id="#295597ff"></g><g id="#000000ff"><path fill="#FFFFFF" opacity="1.00" d=" M 20.34 0.00 L 30.02 0.00 C 39.86 2.80 47.92 10.83 50.00 20.95 L 50.00 28.04 C 47.86 38.22 39.68 46.43 29.66 49.00 L 20.82 49.00 C 10.66 46.82 2.64 38.63 0.00 28.68 L 0.00 20.17 C 2.73 10.44 10.45 2.44 20.34 0.00 M 30.27 8.47 C 29.33 10.11 28.38 11.75 27.43 13.39 C 22.99 13.36 18.56 13.38 14.12 13.38 C 14.13 16.06 14.14 18.74 14.17 21.43 C 17.15 21.47 20.13 21.47 23.11 21.34 C 19.95 27.60 14.13 33.23 14.05 40.50 C 16.33 40.49 18.61 40.48 20.89 40.47 C 21.80 38.84 22.71 37.21 23.63 35.58 C 28.05 35.61 32.47 35.60 36.89 35.60 C 37.05 32.95 37.21 30.29 37.10 27.63 C 34.07 27.52 31.04 27.47 28.01 27.66 C 31.18 21.38 36.85 15.76 37.20 8.50 C 34.89 8.50 32.58 8.49 30.27 8.47 Z"/></g><g id="#ffffffff"></g></svg>
