<?xml version="1.0" encoding="UTF-8" ?><!DOCTYPE svg PUBLIC "-//W3C//DTD SVG 1.1//EN" "http://www.w3.org/Graphics/SVG/1.1/DTD/svg11.dtd"><svg width="40px" height="40px" viewBox="0 0 50 49" version="1.1" xmlns="http://www.w3.org/2000/svg"><g id="#295597ff"></g><g id="#000000ff"><path fill="#FFFFFF" opacity="1.00" d=" M 21.41 0.00 L 29.19 0.00 C 39.63 2.22 48.28 10.95 50.00 21.55 L 50.00 27.32 C 48.46 37.22 40.85 45.46 31.39 48.44 C 31.21 42.06 31.29 35.67 31.30 29.28 C 33.02 29.31 34.74 29.34 36.46 29.37 C 36.75 27.05 37.15 24.76 37.48 22.45 C 35.42 22.41 33.36 22.40 31.30 22.38 C 31.29 20.39 31.30 18.40 31.39 16.41 C 33.14 16.34 34.89 16.34 36.65 16.38 C 37.68 14.20 37.30 11.76 37.41 9.44 C 28.60 6.74 20.18 12.86 22.65 22.43 C 21.30 22.42 19.94 22.41 18.59 22.41 C 18.59 24.72 18.61 27.02 18.65 29.33 C 20.02 29.32 21.39 29.32 22.76 29.32 C 22.81 35.88 22.71 42.44 22.78 49.00 L 20.93 49.00 C 10.45 46.83 1.73 38.07 0.00 27.45 L 0.00 20.94 C 2.23 10.54 10.80 1.73 21.41 0.00 Z"/></g><g id="#ffffffff"></g></svg>