<?xml version="1.0" encoding="UTF-8" ?><!DOCTYPE svg PUBLIC "-//W3C//DTD SVG 1.1//EN" "http://www.w3.org/Graphics/SVG/1.1/DTD/svg11.dtd"><svg width="40px" height="40px" viewBox="0 0 50 49" version="1.1" xmlns="http://www.w3.org/2000/svg"><g id="#295597ff"></g><g id="#000000ff"><path fill="#FFFFFF" opacity="1.00" d=" M 21.40 0.00 L 29.23 0.00 C 39.66 2.26 48.32 10.99 50.00 21.60 L 50.00 27.33 C 48.29 38.15 39.28 47.28 28.44 49.00 L 21.29 49.00 C 10.66 47.06 1.75 38.14 0.00 27.45 L 0.00 20.90 C 2.25 10.52 10.80 1.74 21.40 0.00 M 25.31 19.00 C 22.52 18.72 19.70 18.24 17.28 16.72 C 15.11 15.53 13.29 13.83 11.69 11.97 C 10.06 14.80 10.57 18.68 13.44 20.47 C 12.81 20.50 11.55 20.57 10.92 20.60 C 10.87 22.95 12.34 24.68 13.84 26.29 C 14.33 26.45 15.31 26.79 15.80 26.96 C 15.09 27.15 13.66 27.55 12.95 27.74 C 14.50 29.86 16.62 31.66 19.34 31.94 C 18.19 32.55 17.04 33.15 15.90 33.76 C 13.93 34.58 11.75 34.47 9.68 34.86 C 14.07 37.38 19.17 38.07 24.15 37.26 C 25.44 36.77 26.74 36.31 28.00 35.73 C 34.69 32.60 38.98 25.11 38.63 17.76 C 39.68 16.68 40.70 15.54 42.03 14.79 C 40.92 14.59 39.80 14.48 38.68 14.44 C 39.23 13.67 40.32 12.14 40.87 11.37 C 38.43 13.57 35.44 12.43 33.20 10.64 C 28.57 10.18 24.46 14.34 25.31 19.00 Z"/></g><g id="#ffffffff"></g></svg>